<svg id="Icon" xmlns="http://www.w3.org/2000/svg" xmlns:xlink="http://www.w3.org/1999/xlink" width="42" height="42" viewBox="0 0 42 42">
  <defs>
    <radialGradient id="radial-gradient" cx="0.5" cy="0.509" r="0.798" gradientUnits="objectBoundingBox">
      <stop offset="0" stop-color="#0ad4fa"/>
      <stop offset="1" stop-color="#25bbf1"/>
    </radialGradient>
  </defs>
  <circle id="Oval_Copy_5" data-name="Oval Copy 5" cx="21" cy="21" r="21" fill="url(#radial-gradient)"/>
  <path id="Shape_Copy_2" data-name="Shape Copy 2" d="M1.819,20a1.855,1.855,0,0,1-1.335-.563,1.728,1.728,0,0,1-.479-1.329L1.118,4.531a.6.6,0,0,1,.6-.541H4.755V2.93A2.985,2.985,0,0,1,7.787,0h2.426a2.986,2.986,0,0,1,3.032,2.93V3.99h3.032a.6.6,0,0,1,.6.541l1.112,13.577a1.727,1.727,0,0,1-.479,1.328A1.856,1.856,0,0,1,16.18,20Z" transform="translate(12 11)" fill="#fff"/>
</svg>
